<svg width="24.000000" height="23.000000" viewBox="0 0 24 23" fill="none" xmlns="http://www.w3.org/2000/svg" xmlns:xlink="http://www.w3.org/1999/xlink">
	<defs/>
	<path id="Main" d="M22.25 18.5L22.25 19.75C22.25 21.12 21.12 22.25 19.75 22.25L2.25 22.25C0.86 22.25 -0.25 21.12 -0.25 19.75L-0.25 2.25C-0.25 0.87 0.86 -0.25 2.25 -0.25L19.75 -0.25C21.12 -0.25 22.25 0.87 22.25 2.25L22.25 3.5L11 3.5C9.61 3.5 8.5 4.62 8.5 6L8.5 16C8.5 17.37 9.61 18.5 11 18.5L22.25 18.5ZM11 16L23.5 16L23.5 6L11 6L11 16ZM16 12.87C14.96 12.87 14.12 12.03 14.12 11C14.12 9.96 14.96 9.12 16 9.12C17.03 9.12 17.87 9.96 17.87 11C17.87 12.03 17.03 12.87 16 12.87Z" fill="#D9D6CD" fill-opacity="1.000000" fill-rule="evenodd"/>
</svg>
